<svg width="24" height="24" viewBox="0 0 24 24" fill="none" xmlns="http://www.w3.org/2000/svg">
<g filter="url(#filter0_d_2235_26200)">
<rect x="4" y="2" width="16" height="16" rx="8" fill="#FF3030"/>
<path d="M12.0598 14.728C11.3278 14.728 10.7998 14.224 10.7998 13.48C10.7998 12.76 11.3278 12.232 12.0598 12.232C12.7798 12.232 13.3198 12.76 13.3198 13.48C13.3198 14.224 12.7798 14.728 12.0598 14.728ZM11.0398 10.672V5.9C11.0398 5.396 11.4718 5 12.0718 5C12.6718 5 13.0918 5.396 13.0918 5.9V10.672C13.0918 11.176 12.6718 11.572 12.0718 11.572C11.4718 11.572 11.0398 11.176 11.0398 10.672Z" fill="white"/>
</g>
<defs>
<filter id="filter0_d_2235_26200" x="0" y="0" width="24" height="24" filterUnits="userSpaceOnUse" color-interpolation-filters="sRGB">
<feFlood flood-opacity="0" result="BackgroundImageFix"/>
<feColorMatrix in="SourceAlpha" type="matrix" values="0 0 0 0 0 0 0 0 0 0 0 0 0 0 0 0 0 0 127 0" result="hardAlpha"/>
<feOffset dy="2"/>
<feGaussianBlur stdDeviation="2"/>
<feComposite in2="hardAlpha" operator="out"/>
<feColorMatrix type="matrix" values="0 0 0 0 0 0 0 0 0 0 0 0 0 0 0 0 0 0 0.2 0"/>
<feBlend mode="normal" in2="BackgroundImageFix" result="effect1_dropShadow_2235_26200"/>
<feBlend mode="normal" in="SourceGraphic" in2="effect1_dropShadow_2235_26200" result="shape"/>
</filter>
</defs>
</svg>
