<svg width="32" height="33" viewBox="0 0 32 33" fill="none" xmlns="http://www.w3.org/2000/svg">
<path fill-rule="evenodd" clip-rule="evenodd" d="M13.8271 9.70851C13.7929 9.70851 13.7616 9.72733 13.7458 9.75733L12.8101 11.5339C12.6678 11.804 12.3855 11.9733 12.0777 11.9733H9.4168C8.85937 11.9733 8.40748 12.4203 8.40748 12.9716V20.8703C8.40748 21.4216 8.85937 21.8685 9.4168 21.8685H22.5838C23.1412 21.8685 23.5931 21.4216 23.5931 20.8703V12.9716C23.5931 12.4203 23.1412 11.9733 22.5838 11.9733H19.877C19.5737 11.9733 19.2949 11.809 19.1506 11.5452L18.1721 9.75608C18.1561 9.72677 18.1251 9.70851 18.0914 9.70851H13.8271ZM12.2809 9.00274C12.5812 8.43265 13.1772 8.07507 13.8271 8.07507H18.0914C18.7316 8.07507 19.3202 8.42207 19.6248 8.97894L20.3692 10.3399H22.5838C24.0534 10.3399 25.2447 11.5181 25.2447 12.9716V20.8703C25.2447 22.3237 24.0534 23.502 22.5838 23.502H9.4168C7.9472 23.502 6.75586 22.3237 6.75586 20.8703V12.9716C6.75586 11.5181 7.94721 10.3399 9.4168 10.3399H11.5767L12.2809 9.00274Z" fill="#C2C8CC"/>
<path fill-rule="evenodd" clip-rule="evenodd" d="M13.7458 9.75733C13.7616 9.72733 13.7929 9.70851 13.8271 9.70851H18.0914C18.1251 9.70851 18.1561 9.72677 18.1721 9.75608L19.1506 11.5452C19.2949 11.809 19.5737 11.9733 19.877 11.9733H22.5838C23.1412 11.9733 23.5931 12.4203 23.5931 12.9716V20.8703C23.5931 21.4216 23.1412 21.8685 22.5838 21.8685H9.4168C8.85937 21.8685 8.40748 21.4216 8.40748 20.8703V12.9716C8.40748 12.4203 8.85937 11.9733 9.4168 11.9733H12.0777C12.3855 11.9733 12.6678 11.804 12.8101 11.5339L13.7458 9.75733ZM15.9774 20.099C18.0044 20.099 19.6477 18.4738 19.6477 16.4691C19.6477 14.4644 18.0044 12.8393 15.9774 12.8393C13.9504 12.8393 12.3071 14.4644 12.3071 16.4691C12.3071 18.4738 13.9504 20.099 15.9774 20.099Z" fill="#C2C8CC"/>
<path fill-rule="evenodd" clip-rule="evenodd" d="M19.6477 16.4691C19.6477 18.4738 18.0044 20.099 15.9774 20.099C13.9504 20.099 12.3071 18.4738 12.3071 16.4691C12.3071 14.4644 13.9504 12.8393 15.9774 12.8393C18.0044 12.8393 19.6477 14.4644 19.6477 16.4691ZM15.9774 18.4655C17.0923 18.4655 17.9961 17.5717 17.9961 16.4691C17.9961 15.3665 17.0923 14.4727 15.9774 14.4727C14.8625 14.4727 13.9588 15.3665 13.9588 16.4691C13.9588 17.5717 14.8625 18.4655 15.9774 18.4655Z" fill="#828C94"/>
<path fill-rule="evenodd" clip-rule="evenodd" d="M3.55469 7.25557C3.55469 5.48824 4.98738 4.05554 6.75469 4.05554H8.88802C9.47712 4.05554 9.95469 4.53311 9.95469 5.12222C9.95469 5.71132 9.47712 6.18889 8.88802 6.18889H6.75469C6.16558 6.18889 5.68802 6.66646 5.68802 7.25557V9.38891C5.68802 9.97802 5.21046 10.4556 4.62135 10.4556C4.03225 10.4556 3.55469 9.97802 3.55469 9.38891V7.25557Z" fill="#C2C8CC"/>
<path fill-rule="evenodd" clip-rule="evenodd" d="M25.2434 4.05554C27.0107 4.05554 28.4434 5.48824 28.4434 7.25557L28.4434 9.38891C28.4434 9.97802 27.9658 10.4556 27.3767 10.4556C26.7876 10.4556 26.31 9.97802 26.31 9.38891L26.31 7.25557C26.31 6.66646 25.8325 6.18889 25.2434 6.18889L23.11 6.18889C22.5209 6.18889 22.0434 5.71132 22.0434 5.12222C22.0434 4.53311 22.5209 4.05554 23.11 4.05554L25.2434 4.05554Z" fill="#C2C8CC"/>
<path fill-rule="evenodd" clip-rule="evenodd" d="M28.4434 25.0335C28.4434 26.8008 27.0107 28.2335 25.2434 28.2335L23.11 28.2335C22.5209 28.2335 22.0434 27.7559 22.0434 27.1668C22.0434 26.5777 22.5209 26.1001 23.11 26.1001L25.2434 26.1001C25.8325 26.1001 26.31 25.6226 26.31 25.0335L26.31 22.9001C26.31 22.311 26.7876 21.8334 27.3767 21.8334C27.9658 21.8334 28.4434 22.311 28.4434 22.9001L28.4434 25.0335Z" fill="#C2C8CC"/>
<path fill-rule="evenodd" clip-rule="evenodd" d="M6.75469 28.2335C4.98738 28.2335 3.55469 26.8008 3.55469 25.0335L3.55469 22.9001C3.55469 22.311 4.03225 21.8334 4.62136 21.8334C5.21046 21.8334 5.68802 22.311 5.68802 22.9001L5.68802 25.0335C5.68802 25.6226 6.16558 26.1001 6.75469 26.1001L8.88802 26.1001C9.47712 26.1001 9.95469 26.5777 9.95469 27.1668C9.95469 27.7559 9.47712 28.2335 8.88802 28.2335L6.75469 28.2335Z" fill="#C2C8CC"/>
</svg>
