<svg width="48" height="48" viewBox="0 0 48 48" fill="none" xmlns="http://www.w3.org/2000/svg">
<path fill-rule="evenodd" clip-rule="evenodd" d="M34.9259 14.7712C34.0977 14.5493 33.4508 13.9024 33.2289 13.0742L32.3289 9.71547C32.3146 9.66212 32.2598 9.63047 32.2065 9.64476L28.8478 10.5447C28.0196 10.7666 27.1359 10.5299 26.5296 9.92355L24.0708 7.46481C24.0318 7.42576 23.9685 7.42576 23.9294 7.46481L21.4707 9.92354C20.8644 10.5298 19.9807 10.7666 19.1524 10.5447L15.7938 9.64475C15.7404 9.63046 15.6856 9.66212 15.6713 9.71546L14.7713 13.0742C14.5494 13.9024 13.9025 14.5493 13.0743 14.7712L9.71558 15.6712C9.66223 15.6855 9.63058 15.7403 9.64487 15.7936L10.5448 19.1523C10.7667 19.9806 10.53 20.8643 9.92366 21.4706L7.46493 23.9293C7.42588 23.9683 7.42588 24.0316 7.46493 24.0707L9.92367 26.5294C10.53 27.1357 10.7668 28.0194 10.5448 28.8477L9.64487 32.2063C9.63058 32.2597 9.66224 32.3145 9.71558 32.3288L13.0743 33.2288C13.9025 33.4507 14.5494 34.0976 14.7713 34.9258L15.6713 38.2845C15.6856 38.3379 15.7404 38.3695 15.7938 38.3552L19.1525 37.4553C19.9807 37.2334 20.8644 37.4701 21.4707 38.0764L23.9294 40.5352C23.9685 40.5742 24.0318 40.5742 24.0708 40.5352L26.5296 38.0764C27.1358 37.4701 28.0196 37.2333 28.8478 37.4553L32.2065 38.3552C32.2598 38.3695 32.3146 38.3379 32.3289 38.2845L33.2289 34.9258C33.4508 34.0976 34.0977 33.4507 34.9259 33.2288L38.2846 32.3288C38.338 32.3145 38.3696 32.2597 38.3553 32.2064L37.4554 28.8477C37.2335 28.0194 37.4703 27.1357 38.0766 26.5294L40.5353 24.0707C40.5743 24.0316 40.5743 23.9683 40.5353 23.9293L38.0766 21.4705C37.4703 20.8642 37.2335 19.9805 37.4554 19.1523L38.3554 15.7936C38.3696 15.7403 38.338 15.6855 38.2846 15.6712L34.9259 14.7712ZM19.7736 8.22649L16.4149 7.32653C15.0813 6.96918 13.7104 7.76063 13.3531 9.0943L12.4531 12.453L9.09441 13.353C7.76075 13.7103 6.96929 15.0811 7.32665 16.4148L8.2266 19.7735L5.76788 22.2322C4.79157 23.2085 4.79157 24.7914 5.76788 25.7678L8.22661 28.2265L7.32665 31.5852C6.9693 32.9188 7.76075 34.2897 9.09442 34.647L12.4531 35.547L13.3531 38.9057C13.7104 40.2394 15.0813 41.0308 16.4149 40.6735L19.7736 39.7735L22.2323 42.2322C23.2087 43.2085 24.7916 43.2085 25.7679 42.2322L28.2266 39.7735L31.5853 40.6735C32.919 41.0308 34.2898 40.2394 34.6472 38.9057L35.5471 35.547L38.9058 34.647C40.2395 34.2897 41.0309 32.9189 40.6736 31.5852L39.7736 28.2265L42.2323 25.7678C43.2087 24.7914 43.2087 23.2085 42.2323 22.2322L39.7736 19.7735L40.6736 16.4148C41.0309 15.0811 40.2395 13.7103 38.9058 13.3529L35.5471 12.453L34.6472 9.09431C34.2898 7.76064 32.919 6.96918 31.5853 7.32654L28.2266 8.22649L25.7679 5.76776C24.7916 4.79145 23.2087 4.79144 22.2323 5.76775L19.7736 8.22649Z" fill="white"/>
<path fill-rule="evenodd" clip-rule="evenodd" d="M30.4446 19.1475C30.9155 19.6139 30.919 20.3737 30.4526 20.8445L22.5279 28.8445C22.297 29.0776 21.9808 29.2059 21.6528 29.1998C21.3248 29.1936 21.0137 29.0534 20.7917 28.8119L17.1165 24.8119C16.6681 24.3239 16.7002 23.5647 17.1882 23.1163C17.6762 22.6679 18.4354 22.7001 18.8837 23.1881L21.708 26.2619L28.7476 19.1555C29.214 18.6846 29.9738 18.6811 30.4446 19.1475Z" fill="white"/>
</svg>
