<svg width="32" height="32" viewBox="0 0 32 32" fill="none" xmlns="http://www.w3.org/2000/svg">
<path fill-rule="evenodd" clip-rule="evenodd" d="M24.8585 2.97519C23.7074 1.82411 21.8411 1.8241 20.6901 2.97519L10.3915 13.2737C9.6777 13.9875 9.42845 15.0434 9.74768 16.0011C10.0669 16.9587 9.81766 18.0146 9.10385 18.7284L5.05688 22.7754C3.9058 23.9264 3.9058 25.7927 5.05688 26.9438C6.20797 28.0949 8.07425 28.0949 9.22534 26.9438L13.2708 22.8984C13.9851 22.1841 15.0416 21.9347 16 22.2541C16.9583 22.5736 18.0149 22.3241 18.7292 21.6098L29.027 11.3121C30.1781 10.161 30.1781 8.29473 29.027 7.14365L24.8585 2.97519Z" fill="white"/>
<path fill-rule="evenodd" clip-rule="evenodd" d="M17.2408 9.73215C16.459 9.73215 15.7093 10.0427 15.1565 10.5955L11.7468 14.0051C11.3859 14.366 11.2375 14.888 11.3544 15.3848L11.5842 16.3618C11.818 17.3555 11.5211 18.3994 10.7993 19.1212L5.06252 24.8579C4.48697 25.4335 4.48697 26.3666 5.06252 26.9422C5.63806 27.5177 6.5712 27.5177 7.14674 26.9422L12.8835 21.2054C13.6053 20.4836 14.6492 20.1866 15.6428 20.4204L16.6199 20.6503C17.1167 20.7672 17.6386 20.6187 17.9995 20.2578L27.989 10.2683C28.1921 10.0653 28.0456 9.73215 27.7584 9.73215H17.2408Z" fill="#D5FFBB"/>
<rect x="0.888672" y="24.8584" width="5.89509" height="8.84263" rx="1.47377" transform="rotate(-45 0.888672 24.8584)" fill="#09A522"/>
</svg>
