<svg width="39" height="38" viewBox="0 0 39 38" fill="none" xmlns="http://www.w3.org/2000/svg">
<g filter="url(#filter0_d_2169_52037)">
<path fill-rule="evenodd" clip-rule="evenodd" d="M28.5382 4.15564C27.3871 3.00456 25.5208 3.00455 24.3697 4.15564L14.0712 14.4542C13.3574 15.168 13.1081 16.2238 13.4274 17.1815C13.7466 18.1392 13.4973 19.195 12.7835 19.9089L8.73657 23.9558C7.58548 25.1069 7.58548 26.9732 8.73657 28.1243C9.88766 29.2754 11.7539 29.2754 12.905 28.1243L16.9504 24.0789C17.6647 23.3645 18.7213 23.1151 19.6797 23.4346C20.638 23.754 21.6946 23.5046 22.4089 22.7903L32.7067 12.4926C33.8577 11.3415 33.8577 9.47518 32.7067 8.3241L28.5382 4.15564Z" fill="#FFE999"/>
<path fill-rule="evenodd" clip-rule="evenodd" d="M20.9194 10.9157C20.1377 10.9157 19.388 11.2263 18.8352 11.7791L15.4246 15.1897C15.0637 15.5506 14.9152 16.0725 15.0321 16.5693L15.262 17.5464C15.4958 18.54 15.1988 19.5839 14.477 20.3057L8.74025 26.0425C8.16471 26.618 8.16471 27.5511 8.74025 28.1267C9.3158 28.7022 10.2489 28.7022 10.8245 28.1267L16.5612 22.3899C17.2831 21.6681 18.3269 21.3712 19.3206 21.605L20.2976 21.8348C20.7944 21.9517 21.3164 21.8033 21.6773 21.4424L31.6668 11.4529C31.8702 11.2494 31.7234 10.9157 31.4357 10.9157H20.9194Z" fill="#FFB800"/>
<rect x="4.56836" y="26.04" width="5.89509" height="8.84263" rx="1.47377" transform="rotate(-45 4.56836 26.04)" fill="#F57600"/>
</g>
<defs>
<filter id="filter0_d_2169_52037" x="-0.444445" y="-1.16667" width="40.8889" height="40.8889" filterUnits="userSpaceOnUse" color-interpolation-filters="sRGB">
<feFlood flood-opacity="0" result="BackgroundImageFix"/>
<feColorMatrix in="SourceAlpha" type="matrix" values="0 0 0 0 0 0 0 0 0 0 0 0 0 0 0 0 0 0 127 0" result="hardAlpha"/>
<feOffset dy="1.77778"/>
<feGaussianBlur stdDeviation="2.22222"/>
<feColorMatrix type="matrix" values="0 0 0 0 0.247059 0 0 0 0 0.278431 0 0 0 0 0.301961 0 0 0 0.05 0"/>
<feBlend mode="normal" in2="BackgroundImageFix" result="effect1_dropShadow_2169_52037"/>
<feBlend mode="normal" in="SourceGraphic" in2="effect1_dropShadow_2169_52037" result="shape"/>
</filter>
</defs>
</svg>
