<svg width="32" height="33" viewBox="0 0 32 33" fill="none" xmlns="http://www.w3.org/2000/svg">
<g clip-path="url(#clip0_2169_51636)">
<path d="M26.2218 19.9276C26.2218 26.1725 21.8408 29.6419 15.9996 29.6419C10.1583 29.6419 5.77734 26.1725 5.77734 19.9276C5.77734 15.5625 10.7717 7.80735 13.7784 3.53397C14.8765 1.97336 17.1226 1.97335 18.2207 3.53397C21.2275 7.80735 26.2218 15.5625 26.2218 19.9276Z" fill="#C8F2FF"/>
<path fill-rule="evenodd" clip-rule="evenodd" d="M11.6219 26.8686C18.2976 26.8686 23.3044 22.9036 23.3044 15.7666C23.3044 13.0152 21.5682 9.0852 19.4344 5.29428C22.4039 9.70097 26.2237 16.1112 26.2237 19.9286C26.2237 26.1735 21.8427 29.6428 16.0014 29.6428C12.7015 29.6428 9.86759 28.5356 8.02637 26.4461C9.14966 26.726 10.3558 26.8686 11.6219 26.8686Z" fill="#56D8FF"/>
</g>
<defs>
<clipPath id="clip0_2169_51636">
<rect width="32" height="32" fill="white" transform="translate(0 0.5)"/>
</clipPath>
</defs>
</svg>
