<svg width="17" height="16" viewBox="0 0 17 16" fill="none" xmlns="http://www.w3.org/2000/svg">
<g clip-path="url(#clip0_2685_42449)">
<g filter="url(#filter0_d_2685_42449)">
<path d="M2.41486 12.506C2.12708 12.2182 2.12708 11.7516 2.41486 11.4639L3.45697 10.4218C3.74474 10.134 4.21131 10.134 4.49908 10.4218L6.58331 12.506C6.87108 12.7938 6.87108 13.2603 6.58331 13.5481L5.5412 14.5902C5.25343 14.878 4.78686 14.878 4.49908 14.5902L2.41486 12.506Z" fill="#F57600"/>
<path fill-rule="evenodd" clip-rule="evenodd" d="M1.91158 10.961L2.9537 9.91892C3.51918 9.35344 4.436 9.35344 5.00147 9.91892L7.0857 12.0032C7.65118 12.5686 7.65118 13.4854 7.0857 14.0509L6.04359 15.093C5.47811 15.6585 4.56129 15.6585 3.99581 15.093L1.91158 13.0088C1.34611 12.4433 1.34611 11.5265 1.91158 10.961ZM2.41442 11.4639C2.12664 11.7516 2.12664 12.2182 2.41442 12.506L4.49864 14.5902C4.78642 14.878 5.25299 14.878 5.54076 14.5902L6.58287 13.5481C6.87064 13.2603 6.87064 12.7938 6.58287 12.506L4.49864 10.4218C4.21087 10.134 3.7443 10.134 3.45653 10.4218L2.41442 11.4639Z" fill="#FFE999"/>
<path fill-rule="evenodd" clip-rule="evenodd" d="M13.878 1.04194C13.3024 0.466395 12.3693 0.466394 11.7938 1.04194L6.64456 6.19114C6.28761 6.54809 6.16296 7.07608 6.3226 7.55498C6.48223 8.03388 6.35759 8.56187 6.00064 8.91882L3.97706 10.9424C3.40152 11.5179 3.40152 12.4511 3.97706 13.0266C4.55261 13.6022 5.48575 13.6022 6.06129 13.0266L8.08438 11.0035C8.44149 10.6464 8.96971 10.5217 9.44882 10.6814C9.92794 10.8411 10.4562 10.7164 10.8133 10.3593L15.9622 5.2104C16.5378 4.63485 16.5378 3.70171 15.9622 3.12617L13.878 1.04194Z" fill="#FFE999"/>
<path fill-rule="evenodd" clip-rule="evenodd" d="M10.067 4.42197C9.67618 4.42197 9.30132 4.57724 9.02493 4.85362L7.3202 6.55836C7.13975 6.73881 7.06551 6.99978 7.12396 7.24819L7.2389 7.7367C7.3558 8.23352 7.20732 8.75546 6.84642 9.11636L3.97804 11.9847C3.69026 12.2725 3.69026 12.7391 3.97804 13.0269C4.26581 13.3146 4.73238 13.3146 5.02015 13.0269L7.88854 10.1585C8.24944 9.79758 8.77138 9.6491 9.2682 9.766L9.75671 9.88094C10.0051 9.93939 10.2661 9.86515 10.4465 9.6847L15.4413 4.68995C15.5428 4.58846 15.4696 4.42197 15.326 4.42197H10.067Z" fill="#FFB800"/>
<path d="M2.41486 12.506C2.12708 12.2182 2.12708 11.7516 2.41486 11.4639L3.45697 10.4218C3.74474 10.134 4.21131 10.134 4.49908 10.4218L6.58331 12.506C6.87108 12.7938 6.87108 13.2603 6.58331 13.5481L5.5412 14.5902C5.25343 14.878 4.78686 14.878 4.49908 14.5902L2.41486 12.506Z" fill="#F57600"/>
</g>
</g>
<defs>
<filter id="filter0_d_2685_42449" x="-0.734674" y="-0.723043" width="19.3507" height="19.3513" filterUnits="userSpaceOnUse" color-interpolation-filters="sRGB">
<feFlood flood-opacity="0" result="BackgroundImageFix"/>
<feColorMatrix in="SourceAlpha" type="matrix" values="0 0 0 0 0 0 0 0 0 0 0 0 0 0 0 0 0 0 127 0" result="hardAlpha"/>
<feOffset dy="0.888889"/>
<feGaussianBlur stdDeviation="1.11111"/>
<feColorMatrix type="matrix" values="0 0 0 0 0.247059 0 0 0 0 0.278431 0 0 0 0 0.301961 0 0 0 0.05 0"/>
<feBlend mode="normal" in2="BackgroundImageFix" result="effect1_dropShadow_2685_42449"/>
<feBlend mode="normal" in="SourceGraphic" in2="effect1_dropShadow_2685_42449" result="shape"/>
</filter>
<clipPath id="clip0_2685_42449">
<rect width="16" height="16" fill="white" transform="translate(0.888672)"/>
</clipPath>
</defs>
</svg>
