<svg width="28" height="27" viewBox="0 0 28 27" fill="none" xmlns="http://www.w3.org/2000/svg">
<g filter="url(#filter0_ii_2291_30859)">
<path d="M11.8789 3.31476C12.7482 1.56175 15.2596 1.56175 16.1289 3.31476L17.8467 6.77861C18.1916 7.47411 18.858 7.95639 19.629 8.06857L23.4742 8.628C25.4173 8.91069 26.1917 11.288 24.785 12.6518L22.0063 15.3457C21.4473 15.8876 21.1922 16.6687 21.3241 17.4342L21.9794 21.2372C22.3114 23.1643 20.2792 24.6337 18.5406 23.7237L15.1069 21.9263C14.4164 21.5648 13.5914 21.5648 12.9009 21.9263L9.46719 23.7237C7.72861 24.6337 5.69637 23.1643 6.02843 21.2372L6.68372 17.4342C6.81562 16.6687 6.56048 15.8876 6.0015 15.3457L3.22281 12.6518C1.81609 11.288 2.59051 8.91069 4.53357 8.628L8.37881 8.06857C9.14984 7.95639 9.8162 7.47411 10.1611 6.77861L11.8789 3.31476Z" fill="#82E75E"/>
</g>
<path fill-rule="evenodd" clip-rule="evenodd" d="M3.22215 12.6518L1.83002 14.0878C-0.778067 11.5593 0.672327 7.16861 4.24497 6.64884L8.09021 6.0894C8.21414 6.07137 8.31684 5.99457 8.36867 5.89005L10.0864 2.4262C11.6907 -0.808735 16.3158 -0.80873 17.9201 2.4262L19.6378 5.89005C19.6897 5.99457 19.7924 6.07137 19.9163 6.0894L23.7615 6.64884C27.3342 7.16861 28.7846 11.5593 26.1765 14.0878L23.3978 16.7817C23.3119 16.8649 23.275 16.982 23.2944 17.0946L23.9497 20.8976C24.5667 24.4784 20.7999 27.164 17.6125 25.4956L14.1788 23.6982C14.0692 23.6409 13.9373 23.6409 13.8277 23.6982L10.394 25.4956C7.20664 27.164 3.43981 24.4784 4.05682 20.8976L4.71211 17.0946C4.73151 16.982 4.6946 16.8649 4.60872 16.7817L1.83002 14.0878L3.22215 12.6518ZM16.1283 3.31476C15.259 1.56175 12.7475 1.56175 11.8782 3.31476L10.1604 6.77861C9.81555 7.47411 9.14919 7.95639 8.37815 8.06857L4.53291 8.628C2.58986 8.91069 1.81544 11.288 3.22215 12.6518L6.00085 15.3457C6.55983 15.8876 6.81497 16.6687 6.68306 17.4342L6.02777 21.2372C5.69572 23.1643 7.72796 24.6337 9.46653 23.7237L12.9002 21.9263C13.5907 21.5648 14.4158 21.5648 15.1063 21.9263L18.54 23.7237C20.2785 24.6337 22.3108 23.1643 21.9787 21.2372L21.3234 17.4342C21.1915 16.6687 21.4467 15.8876 22.0057 15.3457L24.7844 12.6518C26.1911 11.288 25.4166 8.91069 23.4736 8.628L19.6283 8.06857C18.8573 7.95639 18.191 7.47411 17.8461 6.77861L16.1283 3.31476Z" fill="white"/>
<defs>
<filter id="filter0_ii_2291_30859" x="0.503906" y="0" width="27" height="26" filterUnits="userSpaceOnUse" color-interpolation-filters="sRGB">
<feFlood flood-opacity="0" result="BackgroundImageFix"/>
<feBlend mode="normal" in="SourceGraphic" in2="BackgroundImageFix" result="shape"/>
<feColorMatrix in="SourceAlpha" type="matrix" values="0 0 0 0 0 0 0 0 0 0 0 0 0 0 0 0 0 0 127 0" result="hardAlpha"/>
<feOffset dx="-2" dy="-2"/>
<feGaussianBlur stdDeviation="2"/>
<feComposite in2="hardAlpha" operator="arithmetic" k2="-1" k3="1"/>
<feColorMatrix type="matrix" values="0 0 0 0 0.0352941 0 0 0 0 0.647059 0 0 0 0 0.133333 0 0 0 0.3 0"/>
<feBlend mode="normal" in2="shape" result="effect1_innerShadow_2291_30859"/>
<feColorMatrix in="SourceAlpha" type="matrix" values="0 0 0 0 0 0 0 0 0 0 0 0 0 0 0 0 0 0 127 0" result="hardAlpha"/>
<feOffset dx="2" dy="2"/>
<feGaussianBlur stdDeviation="2"/>
<feComposite in2="hardAlpha" operator="arithmetic" k2="-1" k3="1"/>
<feColorMatrix type="matrix" values="0 0 0 0 1 0 0 0 0 1 0 0 0 0 1 0 0 0 0.3 0"/>
<feBlend mode="normal" in2="effect1_innerShadow_2291_30859" result="effect2_innerShadow_2291_30859"/>
</filter>
</defs>
</svg>
