<svg width="32" height="32" viewBox="0 0 32 32" fill="none" xmlns="http://www.w3.org/2000/svg">
<path d="M27.6965 26.9175C26.4658 28.2357 24.3995 28.3065 23.0814 27.0757C21.7633 25.845 21.6925 23.7787 22.9232 22.4606C24.5511 20.7172 25.4694 18.4347 25.4694 16C25.4694 10.7702 21.2298 6.53061 16 6.53061C10.7702 6.53061 6.53061 10.7702 6.53061 16C6.53061 21.2298 10.7702 25.4694 16 25.4694C17.8034 25.4694 19.2653 26.9313 19.2653 28.7347C19.2653 30.5381 17.8034 32 16 32C7.16344 32 0 24.8366 0 16C0 7.16344 7.16344 0 16 0C24.8366 0 32 7.16344 32 16C32 20.1059 30.4428 23.9764 27.6965 26.9175Z" fill="url(#paint0_angular_3056_50391)"/>
<defs>
<radialGradient id="paint0_angular_3056_50391" cx="0" cy="0" r="1" gradientUnits="userSpaceOnUse" gradientTransform="translate(16 16) rotate(-4.57392) scale(16.7199)">
<stop offset="0.174399" stop-color="#C2C8CC"/>
<stop offset="0.208305" stop-color="white"/>
</radialGradient>
</defs>
</svg>
