<svg width="21" height="20" viewBox="0 0 21 20" fill="none" xmlns="http://www.w3.org/2000/svg">
<g clip-path="url(#clip0_2685_42479)" filter="url(#filter0_d_2685_42479)">
<path fill-rule="evenodd" clip-rule="evenodd" d="M3.35714 11.961L4.39925 10.9189C4.96473 10.3534 5.88155 10.3534 6.44703 10.9189L8.53126 13.0032C9.09674 13.5686 9.09674 14.4854 8.53126 15.0509L7.48915 16.093C6.92367 16.6585 6.00685 16.6585 5.44137 16.093L3.35714 14.0088C2.79166 13.4433 2.79166 12.5265 3.35714 11.961ZM3.85997 12.4639C3.5722 12.7516 3.5722 13.2182 3.85997 13.506L5.9442 15.5902C6.23197 15.878 6.69854 15.878 6.98631 15.5902L8.02843 14.5481C8.3162 14.2603 8.3162 13.7938 8.02843 13.506L5.9442 11.4218C5.65643 11.134 5.18986 11.134 4.90209 11.4218L3.85997 12.4639Z" fill="#D5FFBB"/>
<path fill-rule="evenodd" clip-rule="evenodd" d="M15.3248 2.04194C14.7492 1.46639 13.8161 1.46639 13.2405 2.04194L8.09134 7.19113C7.73438 7.54809 7.60974 8.07608 7.76938 8.55498C7.92901 9.03388 7.80437 9.56187 7.44742 9.91882L5.42384 11.9424C4.8483 12.5179 4.8483 13.4511 5.42384 14.0266C5.99938 14.6022 6.93253 14.6022 7.50807 14.0266L9.53116 12.0035C9.88827 11.6464 10.4165 11.5217 10.8956 11.6814C11.3747 11.8411 11.9029 11.7164 12.26 11.3593L17.409 6.21039C17.9845 5.63485 17.9845 4.70171 17.409 4.12616L15.3248 2.04194Z" fill="#D5FFBB"/>
<path fill-rule="evenodd" clip-rule="evenodd" d="M11.5138 5.42197C11.123 5.42197 10.7481 5.57724 10.4717 5.85362L8.76698 7.55836C8.58653 7.73881 8.51229 7.99978 8.57074 8.24819L8.68568 8.7367C8.80258 9.23352 8.6541 9.75546 8.2932 10.1164L5.42481 12.9847C5.13704 13.2725 5.13704 13.7391 5.42481 14.0269C5.71259 14.3146 6.17916 14.3146 6.46693 14.0269L9.33531 11.1585C9.69621 10.7976 10.2182 10.6491 10.715 10.766L11.2035 10.8809C11.4519 10.9394 11.7129 10.8652 11.8933 10.6847L16.8881 5.68995C16.9896 5.58846 16.9163 5.42197 16.7728 5.42197H11.5138Z" fill="#82E75E"/>
<rect x="3.33936" y="12.9849" width="2.94754" height="4.42132" rx="0.736886" transform="rotate(-45 3.33936 12.9849)" fill="#09A522"/>
</g>
<defs>
<filter id="filter0_d_2685_42479" x="0.109809" y="-0.333333" width="20.4444" height="20.4444" filterUnits="userSpaceOnUse" color-interpolation-filters="sRGB">
<feFlood flood-opacity="0" result="BackgroundImageFix"/>
<feColorMatrix in="SourceAlpha" type="matrix" values="0 0 0 0 0 0 0 0 0 0 0 0 0 0 0 0 0 0 127 0" result="hardAlpha"/>
<feOffset dy="0.888889"/>
<feGaussianBlur stdDeviation="1.11111"/>
<feColorMatrix type="matrix" values="0 0 0 0 0.247059 0 0 0 0 0.278431 0 0 0 0 0.301961 0 0 0 0.05 0"/>
<feBlend mode="normal" in2="BackgroundImageFix" result="effect1_dropShadow_2685_42479"/>
<feBlend mode="normal" in="SourceGraphic" in2="effect1_dropShadow_2685_42479" result="shape"/>
</filter>
<clipPath id="clip0_2685_42479">
<rect width="16" height="16" fill="white" transform="translate(2.33203 1)"/>
</clipPath>
</defs>
</svg>
