<svg width="16" height="16" viewBox="0 0 16 16" fill="none" xmlns="http://www.w3.org/2000/svg">
<g clip-path="url(#clip0_2685_42429)">
<g filter="url(#filter0_d_2685_42429)">
<path d="M13.1104 10.2222C13.1104 13.5079 10.9199 15.3333 7.99929 15.3333C5.07866 15.3333 2.88818 13.5079 2.88818 10.2222C2.88818 7.93521 5.3644 3.87949 6.86972 1.62526C7.41611 0.807039 8.58248 0.807038 9.12886 1.62526C10.6342 3.87948 13.1104 7.93521 13.1104 10.2222Z" fill="#56D8FF"/>
</g>
<path fill-rule="evenodd" clip-rule="evenodd" d="M5.809 13.8736C9.14687 13.8736 11.6503 11.7875 11.6503 8.03237C11.6503 6.58495 10.7824 4.51763 9.71572 2.52335C11.2005 4.84188 13.1101 8.21428 13.1101 10.2227C13.1101 13.5084 10.9196 15.3338 7.99898 15.3338C6.34872 15.3338 4.93159 14.751 4.01099 13.6513C4.5727 13.7986 5.17584 13.8736 5.809 13.8736Z" fill="#008DCA"/>
<path d="M12.7549 10.2222C12.7549 11.7826 12.2371 12.9619 11.4052 13.7521C10.5704 14.5452 9.3862 14.9778 7.99929 14.9778C6.61239 14.9778 5.42819 14.5452 4.59339 13.7521C3.76152 12.9619 3.24374 11.7826 3.24374 10.2222C3.24374 9.70758 3.38454 9.06833 3.63453 8.34763C3.88306 7.63115 4.23203 6.85507 4.63115 6.07308C5.42939 4.50909 6.41627 2.94456 7.16541 1.82271C7.57103 1.2153 8.42756 1.21529 8.83318 1.82271C9.58232 2.94456 10.5692 4.50909 11.3674 6.07308C11.7666 6.85507 12.1155 7.63115 12.3641 8.34763C12.614 9.06833 12.7549 9.70758 12.7549 10.2222Z" stroke="#C8F2FF" stroke-width="0.711111"/>
</g>
<defs>
<filter id="filter0_d_2685_42429" x="0.665961" y="-0.321737" width="14.6666" height="18.7662" filterUnits="userSpaceOnUse" color-interpolation-filters="sRGB">
<feFlood flood-opacity="0" result="BackgroundImageFix"/>
<feColorMatrix in="SourceAlpha" type="matrix" values="0 0 0 0 0 0 0 0 0 0 0 0 0 0 0 0 0 0 127 0" result="hardAlpha"/>
<feOffset dy="0.888889"/>
<feGaussianBlur stdDeviation="1.11111"/>
<feColorMatrix type="matrix" values="0 0 0 0 0.247059 0 0 0 0 0.278431 0 0 0 0 0.301961 0 0 0 0.05 0"/>
<feBlend mode="normal" in2="BackgroundImageFix" result="effect1_dropShadow_2685_42429"/>
<feBlend mode="normal" in="SourceGraphic" in2="effect1_dropShadow_2685_42429" result="shape"/>
</filter>
<clipPath id="clip0_2685_42429">
<rect width="16" height="16" fill="white"/>
</clipPath>
</defs>
</svg>
